# xmcd
#
# Track frame offsets:
#	150
#	20850
#	37417
#	50412
#	64142
#	75897
#	82822
#	95547
#	113604
#	125325
#	139815
#	155480
#	171147
#	183165
#	201117
#	214212
#	232672
#
# Disc length: 3225 seconds
#
# Revision: 1
# Processed by: cddbd v1.5.1PL0 Copyright (c) Steve Scherf et al.
# Submitted via: audiograbber 1.83.01
#
DISCID=dd0c9711
DTITLE=Various Artist - Totally (Genuine) Country Men
DYEAR=1997
DGENRE=Country
TTITLE0=Gram Parson and Emmylou Harris - Love Hurts
TTITLE1=A.C. Brooks - American Night
TTITLE2=Freddie Fender - Silver Wings
TTITLE3=Perfect Stranger - Ridin' The Rodeo
TTITLE4=Willie Nelson - Is There Something On Your Mind
TTITLE5=Waylon Jennings - It's So Easy
TTITLE6=The Oak Ridge Boys - You'll Never Walk Alone
TTITLE7=Bob Woodruff - That Was Then
TTITLE8=Eric Moll - Honky Tonk Tough
TTITLE9=Stop The Truck - Old Side Of Town
TTITLE10=Ferlin Husky - Way Out There
TTITLE11=Chris Hillman and Desert Rose Band - Will This Be The Day
TTITLE12=Conway Twitty - You Made Me What I Am
TTITLE13=Al Anderson - It Came From The South
TTITLE14=Don Williams - Where Do I Go From Here
TTITLE15=Capital Country - Northbound
TTITLE16=George Jones - World Worst Lover
EXTD=
EXTT0=
EXTT1=
EXTT2=
EXTT3=
EXTT4=
EXTT5=
EXTT6=
EXTT7=
EXTT8=
EXTT9=
EXTT10=
EXTT11=
EXTT12=
EXTT13=
EXTT14=
EXTT15=
EXTT16=
PLAYORDER=
